<?xml version="1.0" encoding="UTF-8" standalone="no"?>
<svg width="24px" height="18px" viewBox="0 0 24 18" version="1.1" xmlns="http://www.w3.org/2000/svg" xmlns:xlink="http://www.w3.org/1999/xlink" xmlns:sketch="http://www.bohemiancoding.com/sketch/ns">
    <!-- Generator: Sketch 3.3.2 (12043) - http://www.bohemiancoding.com/sketch -->
    <title>delete</title>
    <desc>Created with Sketch.</desc>
    <defs></defs>
    <g id="Page-1" stroke="none" stroke-width="1" fill="none" fill-rule="evenodd" sketch:type="MSPage">
        <g id="Mobile-Portrait" sketch:type="MSArtboardGroup" transform="translate(0.000000, -3.000000)" fill="#FFFFFF" opacity="0.6">
            <path d="M22,3 L7.1,3 C6.4,3 5.8,3.3 5.4,3.9 L0,12 L5.4,20.1 C5.8,20.6 6.4,21 7.1,21 L22,21 C23.1,21 24,20.1 24,19 L24,5 C24,3.9 23.1,3 22,3 L22,3 Z M19,15.6 L17.6,17 L14,13.4 L10.4,17 L9,15.6 L12.6,12 L9,8.4 L10.4,7 L14,10.6 L17.6,7 L19,8.4 L15.4,12 L19,15.6 L19,15.6 Z" id="delete" sketch:type="MSShapeGroup"></path>
        </g>
    </g>
</svg>